<svg xmlns="http://www.w3.org/2000/svg" viewBox="0 0 240 240" width="240" height="240" role="img" aria-label="Heavy outline"><rect x="0" y="0" width="240" height="240" rx="28" fill="#26201C"/><path d="M119.39 42.24 L122.94 50.21 L138.77 43.61 L151.40 54.25 L150.70 104.22 L160.64 108.22 L159.11 119.22 L162.79 124.85 L167.60 123.59 L172.91 136.19 L164.13 144.02 L163.74 140.08 L157.10 146.50 L150.14 145.49 L144.78 153.78 L139.34 148.21 L137.91 157.62 L136.33 150.17 L131.57 151.30 L132.59 157.54 L124.86 154.46 L125.98 148.58 L120.89 150.31 L119.19 163.54 L98.97 176.53 L93.78 175.34 L94.58 170.93 L89.97 174.11 L89.80 181.62 L76.82 200.00 L69.55 188.01 L67.08 118.34 L72.90 121.11 L74.41 113.93 L78.59 115.50 L76.33 110.80 L88.20 97.05 L87.34 86.11 L94.91 67.80 L114.69 40.00Z" fill="none" stroke="#B9C9D3" stroke-width="18" stroke-linejoin="round"/></svg>