<svg xmlns="http://www.w3.org/2000/svg" viewBox="0 0 400 400" width="400" height="400" role="img" aria-label="Texture"><g fill="#1B5A44" opacity="1.0"><circle cx="0.0" cy="0.0" r="3.04"/><circle cx="14.0" cy="0.0" r="3.24"/><circle cx="28.0" cy="0.0" r="3.43"/><circle cx="42.0" cy="0.0" r="3.63"/><circle cx="56.0" cy="0.0" r="3.82"/><circle cx="70.0" cy="0.0" r="4.03"/><circle cx="84.0" cy="0.0" r="4.23"/><circle cx="98.0" cy="0.0" r="4.44"/><circle cx="112.0" cy="0.0" r="4.64"/><circle cx="126.0" cy="0.0" r="4.85"/><circle cx="140.0" cy="0.0" r="5.07"/><circle cx="154.0" cy="0.0" r="5.28"/><circle cx="168.0" cy="0.0" r="5.50"/><circle cx="182.0" cy="0.0" r="5.72"/><circle cx="196.0" cy="0.0" r="5.94"/><circle cx="210.0" cy="0.0" r="5.84"/><circle cx="224.0" cy="0.0" r="5.62"/><circle cx="238.0" cy="0.0" r="5.40"/><circle cx="252.0" cy="0.0" r="5.19"/><circle cx="266.0" cy="0.0" r="4.98"/><circle cx="280.0" cy="0.0" r="4.76"/><circle cx="294.0" cy="0.0" r="4.55"/><circle cx="308.0" cy="0.0" r="4.35"/><circle cx="322.0" cy="0.0" r="4.14"/><circle cx="336.0" cy="0.0" r="3.94"/><circle cx="350.0" cy="0.0" r="3.74"/><circle cx="364.0" cy="0.0" r="3.54"/><circle cx="378.0" cy="0.0" r="3.35"/><circle cx="392.0" cy="0.0" r="3.15"/><circle cx="7.0" cy="14.0" r="3.13"/><circle cx="21.0" cy="14.0" r="3.32"/><circle cx="35.0" cy="14.0" r="3.52"/><circle cx="49.0" cy="14.0" r="3.72"/><circle cx="63.0" cy="14.0" r="3.91"/><circle cx="77.0" cy="14.0" r="4.12"/><circle cx="91.0" cy="14.0" r="4.32"/><circle cx="105.0" cy="14.0" r="4.52"/><circle cx="119.0" cy="14.0" r="4.73"/><circle cx="133.0" cy="14.0" r="4.94"/><circle cx="147.0" cy="14.0" r="5.15"/><circle cx="161.0" cy="14.0" r="5.35"/><circle cx="175.0" cy="14.0" r="5.55"/><circle cx="189.0" cy="14.0" r="5.72"/><circle cx="203.0" cy="14.0" r="5.77"/><circle cx="217.0" cy="14.0" r="5.65"/><circle cx="231.0" cy="14.0" r="5.47"/><circle cx="245.0" cy="14.0" r="5.26"/><circle cx="259.0" cy="14.0" r="5.06"/><circle cx="273.0" cy="14.0" r="4.85"/><circle cx="287.0" cy="14.0" r="4.64"/><circle cx="301.0" cy="14.0" r="4.44"/><circle cx="315.0" cy="14.0" r="4.23"/><circle cx="329.0" cy="14.0" r="4.03"/><circle cx="343.0" cy="14.0" r="3.83"/><circle cx="357.0" cy="14.0" r="3.63"/><circle cx="371.0" cy="14.0" r="3.44"/><circle cx="385.0" cy="14.0" r="3.24"/><circle cx="399.0" cy="14.0" r="3.05"/><circle cx="0.0" cy="28.0" r="3.02"/><circle cx="14.0" cy="28.0" r="3.21"/><circle cx="28.0" cy="28.0" r="3.40"/><circle cx="42.0" cy="28.0" r="3.59"/><circle cx="56.0" cy="28.0" r="3.79"/><circle cx="70.0" cy="28.0" r="3.98"/><circle cx="84.0" cy="28.0" r="4.18"/><circle cx="98.0" cy="28.0" r="4.38"/><circle cx="112.0" cy="28.0" r="4.58"/><circle cx="126.0" cy="28.0" r="4.78"/><circle cx="140.0" cy="28.0" r="4.97"/><circle cx="154.0" cy="28.0" r="5.16"/><circle cx="168.0" cy="28.0" r="5.33"/><circle cx="182.0" cy="28.0" r="5.48"/><circle cx="196.0" cy="28.0" r="5.56"/><circle cx="210.0" cy="28.0" r="5.53"/><circle cx="224.0" cy="28.0" r="5.42"/><circle cx="238.0" cy="28.0" r="5.26"/><circle cx="252.0" cy="28.0" r="5.08"/><circle cx="266.0" cy="28.0" r="4.89"/><circle cx="280.0" cy="28.0" r="4.69"/><circle cx="294.0" cy="28.0" r="4.49"/><circle cx="308.0" cy="28.0" r="4.29"/><circle cx="322.0" cy="28.0" r="4.10"/><circle cx="336.0" cy="28.0" r="3.90"/><circle cx="350.0" cy="28.0" r="3.70"/><circle cx="364.0" cy="28.0" r="3.51"/><circle cx="378.0" cy="28.0" r="3.32"/><circle cx="392.0" cy="28.0" r="3.13"/><circle cx="7.0" cy="42.0" r="3.08"/><circle cx="21.0" cy="42.0" r="3.27"/><circle cx="35.0" cy="42.0" r="3.45"/><circle cx="49.0" cy="42.0" r="3.64"/><circle cx="63.0" cy="42.0" r="3.83"/><circle cx="77.0" cy="42.0" r="4.03"/><circle cx="91.0" cy="42.0" r="4.22"/><circle cx="105.0" cy="42.0" r="4.41"/><circle cx="119.0" cy="42.0" r="4.60"/><circle cx="133.0" cy="42.0" r="4.78"/><circle cx="147.0" cy="42.0" r="4.95"/><circle cx="161.0" cy="42.0" r="5.11"/><circle cx="175.0" cy="42.0" r="5.24"/><circle cx="189.0" cy="42.0" r="5.32"/><circle cx="203.0" cy="42.0" r="5.34"/><circle cx="217.0" cy="42.0" r="5.29"/><circle cx="231.0" cy="42.0" r="5.19"/><circle cx="245.0" cy="42.0" r="5.04"/><circle cx="259.0" cy="42.0" r="4.88"/><circle cx="273.0" cy="42.0" r="4.70"/><circle cx="287.0" cy="42.0" r="4.52"/><circle cx="301.0" cy="42.0" r="4.33"/><circle cx="315.0" cy="42.0" r="4.14"/><circle cx="329.0" cy="42.0" r="3.94"/><circle cx="343.0" cy="42.0" r="3.75"/><circle cx="357.0" cy="42.0" r="3.56"/><circle cx="371.0" cy="42.0" r="3.37"/><circle cx="385.0" cy="42.0" r="3.18"/><circle cx="399.0" cy="42.0" r="3.00"/><circle cx="0.0" cy="56.0" r="2.94"/><circle cx="14.0" cy="56.0" r="3.12"/><circle cx="28.0" cy="56.0" r="3.31"/><circle cx="42.0" cy="56.0" r="3.49"/><circle cx="56.0" cy="56.0" r="3.68"/><circle cx="70.0" cy="56.0" r="3.86"/><circle cx="84.0" cy="56.0" r="4.04"/><circle cx="98.0" cy="56.0" r="4.22"/><circle cx="112.0" cy="56.0" r="4.40"/><circle cx="126.0" cy="56.0" r="4.57"/><circle cx="140.0" cy="56.0" r="4.73"/><circle cx="154.0" cy="56.0" r="4.88"/><circle cx="168.0" cy="56.0" r="5.00"/><circle cx="182.0" cy="56.0" r="5.08"/><circle cx="196.0" cy="56.0" r="5.13"/><circle cx="210.0" cy="56.0" r="5.11"/><circle cx="224.0" cy="56.0" r="5.05"/><circle cx="238.0" cy="56.0" r="4.95"/><circle cx="252.0" cy="56.0" r="4.82"/><circle cx="266.0" cy="56.0" r="4.67"/><circle cx="280.0" cy="56.0" r="4.50"/><circle cx="294.0" cy="56.0" r="4.33"/><circle cx="308.0" cy="56.0" r="4.15"/><circle cx="322.0" cy="56.0" r="3.96"/><circle cx="336.0" cy="56.0" r="3.78"/><circle cx="350.0" cy="56.0" r="3.60"/><circle cx="364.0" cy="56.0" r="3.41"/><circle cx="378.0" cy="56.0" r="3.23"/><circle cx="392.0" cy="56.0" r="3.04"/><circle cx="7.0" cy="70.0" r="2.97"/><circle cx="21.0" cy="70.0" r="3.15"/><circle cx="35.0" cy="70.0" r="3.33"/><circle cx="49.0" cy="70.0" r="3.51"/><circle cx="63.0" cy="70.0" r="3.68"/><circle cx="77.0" cy="70.0" r="3.86"/><circle cx="91.0" cy="70.0" r="4.03"/><circle cx="105.0" cy="70.0" r="4.20"/><circle cx="119.0" cy="70.0" r="4.36"/><circle cx="133.0" cy="70.0" r="4.51"/><circle cx="147.0" cy="70.0" r="4.65"/><circle cx="161.0" cy="70.0" r="4.76"/><circle cx="175.0" cy="70.0" r="4.85"/><circle cx="189.0" cy="70.0" r="4.90"/><circle cx="203.0" cy="70.0" r="4.91"/><circle cx="217.0" cy="70.0" r="4.88"/><circle cx="231.0" cy="70.0" r="4.82"/><circle cx="245.0" cy="70.0" r="4.72"/><circle cx="259.0" cy="70.0" r="4.59"/><circle cx="273.0" cy="70.0" r="4.45"/><circle cx="287.0" cy="70.0" r="4.29"/><circle cx="301.0" cy="70.0" r="4.13"/><circle cx="315.0" cy="70.0" r="3.96"/><circle cx="329.0" cy="70.0" r="3.79"/><circle cx="343.0" cy="70.0" r="3.61"/><circle cx="357.0" cy="70.0" r="3.43"/><circle cx="371.0" cy="70.0" r="3.25"/><circle cx="385.0" cy="70.0" r="3.07"/><circle cx="399.0" cy="70.0" r="2.90"/><circle cx="0.0" cy="84.0" r="2.82"/><circle cx="14.0" cy="84.0" r="2.99"/><circle cx="28.0" cy="84.0" r="3.16"/><circle cx="42.0" cy="84.0" r="3.33"/><circle cx="56.0" cy="84.0" r="3.50"/><circle cx="70.0" cy="84.0" r="3.67"/><circle cx="84.0" cy="84.0" r="3.84"/><circle cx="98.0" cy="84.0" r="4.00"/><circle cx="112.0" cy="84.0" r="4.15"/><circle cx="126.0" cy="84.0" r="4.29"/><circle cx="140.0" cy="84.0" r="4.42"/><circle cx="154.0" cy="84.0" r="4.53"/><circle cx="168.0" cy="84.0" r="4.62"/><circle cx="182.0" cy="84.0" r="4.68"/><circle cx="196.0" cy="84.0" r="4.70"/><circle cx="210.0" cy="84.0" r="4.69"/><circle cx="224.0" cy="84.0" r="4.65"/><circle cx="238.0" cy="84.0" r="4.58"/><circle cx="252.0" cy="84.0" r="4.48"/><circle cx="266.0" cy="84.0" r="4.36"/><circle cx="280.0" cy="84.0" r="4.23"/><circle cx="294.0" cy="84.0" r="4.08"/><circle cx="308.0" cy="84.0" r="3.93"/><circle cx="322.0" cy="84.0" r="3.77"/><circle cx="336.0" cy="84.0" r="3.60"/><circle cx="350.0" cy="84.0" r="3.43"/><circle cx="364.0" cy="84.0" r="3.26"/><circle cx="378.0" cy="84.0" r="3.09"/><circle cx="392.0" cy="84.0" r="2.92"/><circle cx="7.0" cy="98.0" r="2.82"/><circle cx="21.0" cy="98.0" r="2.99"/><circle cx="35.0" cy="98.0" r="3.15"/><circle cx="49.0" cy="98.0" r="3.32"/><circle cx="63.0" cy="98.0" r="3.48"/><circle cx="77.0" cy="98.0" r="3.64"/><circle cx="91.0" cy="98.0" r="3.79"/><circle cx="105.0" cy="98.0" r="3.93"/><circle cx="119.0" cy="98.0" r="4.07"/><circle cx="133.0" cy="98.0" r="4.19"/><circle cx="147.0" cy="98.0" r="4.30"/><circle cx="161.0" cy="98.0" r="4.38"/><circle cx="175.0" cy="98.0" r="4.45"/><circle cx="189.0" cy="98.0" r="4.49"/><circle cx="203.0" cy="98.0" r="4.49"/><circle cx="217.0" cy="98.0" r="4.47"/><circle cx="231.0" cy="98.0" r="4.42"/><circle cx="245.0" cy="98.0" r="4.35"/><circle cx="259.0" cy="98.0" r="4.25"/><circle cx="273.0" cy="98.0" r="4.14"/><circle cx="287.0" cy="98.0" r="4.01"/><circle cx="301.0" cy="98.0" r="3.87"/><circle cx="315.0" cy="98.0" r="3.72"/><circle cx="329.0" cy="98.0" r="3.57"/><circle cx="343.0" cy="98.0" r="3.41"/><circle cx="357.0" cy="98.0" r="3.25"/><circle cx="371.0" cy="98.0" r="3.08"/><circle cx="385.0" cy="98.0" r="2.92"/><circle cx="399.0" cy="98.0" r="2.75"/><circle cx="0.0" cy="112.0" r="2.65"/><circle cx="14.0" cy="112.0" r="2.81"/><circle cx="28.0" cy="112.0" r="2.97"/><circle cx="42.0" cy="112.0" r="3.13"/><circle cx="56.0" cy="112.0" r="3.29"/><circle cx="70.0" cy="112.0" r="3.44"/><circle cx="84.0" cy="112.0" r="3.58"/><circle cx="98.0" cy="112.0" r="3.72"/><circle cx="112.0" cy="112.0" r="3.85"/><circle cx="126.0" cy="112.0" r="3.96"/><circle cx="140.0" cy="112.0" r="4.07"/><circle cx="154.0" cy="112.0" r="4.16"/><circle cx="168.0" cy="112.0" r="4.22"/><circle cx="182.0" cy="112.0" r="4.27"/><circle cx="196.0" cy="112.0" r="4.29"/><circle cx="210.0" cy="112.0" r="4.28"/><circle cx="224.0" cy="112.0" r="4.25"/><circle cx="238.0" cy="112.0" r="4.20"/><circle cx="252.0" cy="112.0" r="4.12"/><circle cx="266.0" cy="112.0" r="4.03"/><circle cx="280.0" cy="112.0" r="3.92"/><circle cx="294.0" cy="112.0" r="3.79"/><circle cx="308.0" cy="112.0" r="3.66"/><circle cx="322.0" cy="112.0" r="3.52"/><circle cx="336.0" cy="112.0" r="3.37"/><circle cx="350.0" cy="112.0" r="3.22"/><circle cx="364.0" cy="112.0" r="3.06"/><circle cx="378.0" cy="112.0" r="2.91"/><circle cx="392.0" cy="112.0" r="2.75"/><circle cx="7.0" cy="126.0" r="2.64"/><circle cx="21.0" cy="126.0" r="2.79"/><circle cx="35.0" cy="126.0" r="2.94"/><circle cx="49.0" cy="126.0" r="3.09"/><circle cx="63.0" cy="126.0" r="3.23"/><circle cx="77.0" cy="126.0" r="3.37"/><circle cx="91.0" cy="126.0" r="3.51"/><circle cx="105.0" cy="126.0" r="3.63"/><circle cx="119.0" cy="126.0" r="3.74"/><circle cx="133.0" cy="126.0" r="3.84"/><circle cx="147.0" cy="126.0" r="3.93"/><circle cx="161.0" cy="126.0" r="4.00"/><circle cx="175.0" cy="126.0" r="4.05"/><circle cx="189.0" cy="126.0" r="4.08"/><circle cx="203.0" cy="126.0" r="4.08"/><circle cx="217.0" cy="126.0" r="4.07"/><circle cx="231.0" cy="126.0" r="4.03"/><circle cx="245.0" cy="126.0" r="3.97"/><circle cx="259.0" cy="126.0" r="3.89"/><circle cx="273.0" cy="126.0" r="3.80"/><circle cx="287.0" cy="126.0" r="3.70"/><circle cx="301.0" cy="126.0" r="3.58"/><circle cx="315.0" cy="126.0" r="3.45"/><circle cx="329.0" cy="126.0" r="3.31"/><circle cx="343.0" cy="126.0" r="3.17"/><circle cx="357.0" cy="126.0" r="3.03"/><circle cx="371.0" cy="126.0" r="2.88"/><circle cx="385.0" cy="126.0" r="2.73"/><circle cx="399.0" cy="126.0" r="2.57"/><circle cx="0.0" cy="140.0" r="2.46"/><circle cx="14.0" cy="140.0" r="2.61"/><circle cx="28.0" cy="140.0" r="2.75"/><circle cx="42.0" cy="140.0" r="2.90"/><circle cx="56.0" cy="140.0" r="3.03"/><circle cx="70.0" cy="140.0" r="3.17"/><circle cx="84.0" cy="140.0" r="3.29"/><circle cx="98.0" cy="140.0" r="3.41"/><circle cx="112.0" cy="140.0" r="3.52"/><circle cx="126.0" cy="140.0" r="3.62"/><circle cx="140.0" cy="140.0" r="3.71"/><circle cx="154.0" cy="140.0" r="3.78"/><circle cx="168.0" cy="140.0" r="3.83"/><circle cx="182.0" cy="140.0" r="3.87"/><circle cx="196.0" cy="140.0" r="3.88"/><circle cx="210.0" cy="140.0" r="3.88"/><circle cx="224.0" cy="140.0" r="3.85"/><circle cx="238.0" cy="140.0" r="3.81"/><circle cx="252.0" cy="140.0" r="3.75"/><circle cx="266.0" cy="140.0" r="3.67"/><circle cx="280.0" cy="140.0" r="3.58"/><circle cx="294.0" cy="140.0" r="3.48"/><circle cx="308.0" cy="140.0" r="3.36"/><circle cx="322.0" cy="140.0" r="3.24"/><circle cx="336.0" cy="140.0" r="3.11"/><circle cx="350.0" cy="140.0" r="2.97"/><circle cx="364.0" cy="140.0" r="2.83"/><circle cx="378.0" cy="140.0" r="2.69"/><circle cx="392.0" cy="140.0" r="2.54"/><circle cx="7.0" cy="154.0" r="2.42"/><circle cx="21.0" cy="154.0" r="2.56"/><circle cx="35.0" cy="154.0" r="2.70"/><circle cx="49.0" cy="154.0" r="2.83"/><circle cx="63.0" cy="154.0" r="2.96"/><circle cx="77.0" cy="154.0" r="3.08"/><circle cx="91.0" cy="154.0" r="3.20"/><circle cx="105.0" cy="154.0" r="3.31"/><circle cx="119.0" cy="154.0" r="3.40"/><circle cx="133.0" cy="154.0" r="3.49"/><circle cx="147.0" cy="154.0" r="3.56"/><circle cx="161.0" cy="154.0" r="3.61"/><circle cx="175.0" cy="154.0" r="3.65"/><circle cx="189.0" cy="154.0" r="3.68"/><circle cx="203.0" cy="154.0" r="3.68"/><circle cx="217.0" cy="154.0" r="3.67"/><circle cx="231.0" cy="154.0" r="3.64"/><circle cx="245.0" cy="154.0" r="3.59"/><circle cx="259.0" cy="154.0" r="3.53"/><circle cx="273.0" cy="154.0" r="3.45"/><circle cx="287.0" cy="154.0" r="3.36"/><circle cx="301.0" cy="154.0" r="3.26"/><circle cx="315.0" cy="154.0" r="3.15"/><circle cx="329.0" cy="154.0" r="3.03"/><circle cx="343.0" cy="154.0" r="2.91"/><circle cx="357.0" cy="154.0" r="2.78"/><circle cx="371.0" cy="154.0" r="2.64"/><circle cx="385.0" cy="154.0" r="2.50"/><circle cx="399.0" cy="154.0" r="2.36"/><circle cx="0.0" cy="168.0" r="2.24"/><circle cx="14.0" cy="168.0" r="2.38"/><circle cx="28.0" cy="168.0" r="2.51"/><circle cx="42.0" cy="168.0" r="2.64"/><circle cx="56.0" cy="168.0" r="2.76"/><circle cx="70.0" cy="168.0" r="2.88"/><circle cx="84.0" cy="168.0" r="2.99"/><circle cx="98.0" cy="168.0" r="3.09"/><circle cx="112.0" cy="168.0" r="3.19"/><circle cx="126.0" cy="168.0" r="3.27"/><circle cx="140.0" cy="168.0" r="3.34"/><circle cx="154.0" cy="168.0" r="3.40"/><circle cx="168.0" cy="168.0" r="3.44"/><circle cx="182.0" cy="168.0" r="3.47"/><circle cx="196.0" cy="168.0" r="3.48"/><circle cx="210.0" cy="168.0" r="3.48"/><circle cx="224.0" cy="168.0" r="3.46"/><circle cx="238.0" cy="168.0" r="3.43"/><circle cx="252.0" cy="168.0" r="3.38"/><circle cx="266.0" cy="168.0" r="3.31"/><circle cx="280.0" cy="168.0" r="3.23"/><circle cx="294.0" cy="168.0" r="3.15"/><circle cx="308.0" cy="168.0" r="3.05"/><circle cx="322.0" cy="168.0" r="2.94"/><circle cx="336.0" cy="168.0" r="2.83"/><circle cx="350.0" cy="168.0" r="2.71"/><circle cx="364.0" cy="168.0" r="2.58"/><circle cx="378.0" cy="168.0" r="2.45"/><circle cx="392.0" cy="168.0" r="2.32"/><circle cx="7.0" cy="182.0" r="2.19"/><circle cx="21.0" cy="182.0" r="2.32"/><circle cx="35.0" cy="182.0" r="2.44"/><circle cx="49.0" cy="182.0" r="2.56"/><circle cx="63.0" cy="182.0" r="2.67"/><circle cx="77.0" cy="182.0" r="2.78"/><circle cx="91.0" cy="182.0" r="2.88"/><circle cx="105.0" cy="182.0" r="2.97"/><circle cx="119.0" cy="182.0" r="3.06"/><circle cx="133.0" cy="182.0" r="3.13"/><circle cx="147.0" cy="182.0" r="3.19"/><circle cx="161.0" cy="182.0" r="3.23"/><circle cx="175.0" cy="182.0" r="3.27"/><circle cx="189.0" cy="182.0" r="3.29"/><circle cx="203.0" cy="182.0" r="3.29"/><circle cx="217.0" cy="182.0" r="3.28"/><circle cx="231.0" cy="182.0" r="3.25"/><circle cx="245.0" cy="182.0" r="3.22"/><circle cx="259.0" cy="182.0" r="3.16"/><circle cx="273.0" cy="182.0" r="3.10"/><circle cx="287.0" cy="182.0" r="3.02"/><circle cx="301.0" cy="182.0" r="2.93"/><circle cx="315.0" cy="182.0" r="2.84"/><circle cx="329.0" cy="182.0" r="2.74"/><circle cx="343.0" cy="182.0" r="2.63"/><circle cx="357.0" cy="182.0" r="2.51"/><circle cx="371.0" cy="182.0" r="2.39"/><circle cx="385.0" cy="182.0" r="2.26"/><circle cx="399.0" cy="182.0" r="2.14"/><circle cx="0.0" cy="196.0" r="2.01"/><circle cx="14.0" cy="196.0" r="2.13"/><circle cx="28.0" cy="196.0" r="2.25"/><circle cx="42.0" cy="196.0" r="2.36"/><circle cx="56.0" cy="196.0" r="2.47"/><circle cx="70.0" cy="196.0" r="2.58"/><circle cx="84.0" cy="196.0" r="2.67"/><circle cx="98.0" cy="196.0" r="2.76"/><circle cx="112.0" cy="196.0" r="2.84"/><circle cx="126.0" cy="196.0" r="2.92"/><circle cx="140.0" cy="196.0" r="2.98"/><circle cx="154.0" cy="196.0" r="3.03"/><circle cx="168.0" cy="196.0" r="3.06"/><circle cx="182.0" cy="196.0" r="3.09"/><circle cx="196.0" cy="196.0" r="3.10"/><circle cx="210.0" cy="196.0" r="3.10"/><circle cx="224.0" cy="196.0" r="3.08"/><circle cx="238.0" cy="196.0" r="3.05"/><circle cx="252.0" cy="196.0" r="3.01"/><circle cx="266.0" cy="196.0" r="2.95"/><circle cx="280.0" cy="196.0" r="2.89"/><circle cx="294.0" cy="196.0" r="2.81"/><circle cx="308.0" cy="196.0" r="2.73"/><circle cx="322.0" cy="196.0" r="2.63"/><circle cx="336.0" cy="196.0" r="2.53"/><circle cx="350.0" cy="196.0" r="2.43"/><circle cx="364.0" cy="196.0" r="2.31"/><circle cx="378.0" cy="196.0" r="2.20"/><circle cx="392.0" cy="196.0" r="2.08"/><circle cx="7.0" cy="210.0" r="1.94"/><circle cx="21.0" cy="210.0" r="2.06"/><circle cx="35.0" cy="210.0" r="2.17"/><circle cx="49.0" cy="210.0" r="2.27"/><circle cx="63.0" cy="210.0" r="2.38"/><circle cx="77.0" cy="210.0" r="2.47"/><circle cx="91.0" cy="210.0" r="2.56"/><circle cx="105.0" cy="210.0" r="2.64"/><circle cx="119.0" cy="210.0" r="2.71"/><circle cx="133.0" cy="210.0" r="2.77"/><circle cx="147.0" cy="210.0" r="2.82"/><circle cx="161.0" cy="210.0" r="2.86"/><circle cx="175.0" cy="210.0" r="2.89"/><circle cx="189.0" cy="210.0" r="2.91"/><circle cx="203.0" cy="210.0" r="2.91"/><circle cx="217.0" cy="210.0" r="2.90"/><circle cx="231.0" cy="210.0" r="2.88"/><circle cx="245.0" cy="210.0" r="2.85"/><circle cx="259.0" cy="210.0" r="2.80"/><circle cx="273.0" cy="210.0" r="2.75"/><circle cx="287.0" cy="210.0" r="2.68"/><circle cx="301.0" cy="210.0" r="2.60"/><circle cx="315.0" cy="210.0" r="2.52"/><circle cx="329.0" cy="210.0" r="2.43"/><circle cx="343.0" cy="210.0" r="2.33"/><circle cx="357.0" cy="210.0" r="2.23"/><circle cx="371.0" cy="210.0" r="2.12"/><circle cx="385.0" cy="210.0" r="2.01"/><circle cx="399.0" cy="210.0" r="1.89"/><circle cx="0.0" cy="224.0" r="1.76"/><circle cx="14.0" cy="224.0" r="1.87"/><circle cx="28.0" cy="224.0" r="1.98"/><circle cx="42.0" cy="224.0" r="2.08"/><circle cx="56.0" cy="224.0" r="2.18"/><circle cx="70.0" cy="224.0" r="2.27"/><circle cx="84.0" cy="224.0" r="2.36"/><circle cx="98.0" cy="224.0" r="2.43"/><circle cx="112.0" cy="224.0" r="2.51"/><circle cx="126.0" cy="224.0" r="2.57"/><circle cx="140.0" cy="224.0" r="2.62"/><circle cx="154.0" cy="224.0" r="2.66"/><circle cx="168.0" cy="224.0" r="2.69"/><circle cx="182.0" cy="224.0" r="2.71"/><circle cx="196.0" cy="224.0" r="2.72"/><circle cx="210.0" cy="224.0" r="2.72"/><circle cx="224.0" cy="224.0" r="2.71"/><circle cx="238.0" cy="224.0" r="2.68"/><circle cx="252.0" cy="224.0" r="2.64"/><circle cx="266.0" cy="224.0" r="2.60"/><circle cx="280.0" cy="224.0" r="2.54"/><circle cx="294.0" cy="224.0" r="2.48"/><circle cx="308.0" cy="224.0" r="2.40"/><circle cx="322.0" cy="224.0" r="2.32"/><circle cx="336.0" cy="224.0" r="2.23"/><circle cx="350.0" cy="224.0" r="2.14"/><circle cx="364.0" cy="224.0" r="2.04"/><circle cx="378.0" cy="224.0" r="1.93"/><circle cx="392.0" cy="224.0" r="1.82"/><circle cx="7.0" cy="238.0" r="1.69"/><circle cx="21.0" cy="238.0" r="1.79"/><circle cx="35.0" cy="238.0" r="1.89"/><circle cx="49.0" cy="238.0" r="1.98"/><circle cx="63.0" cy="238.0" r="2.07"/><circle cx="77.0" cy="238.0" r="2.16"/><circle cx="91.0" cy="238.0" r="2.24"/><circle cx="105.0" cy="238.0" r="2.31"/><circle cx="119.0" cy="238.0" r="2.37"/><circle cx="133.0" cy="238.0" r="2.42"/><circle cx="147.0" cy="238.0" r="2.46"/><circle cx="161.0" cy="238.0" r="2.50"/><circle cx="175.0" cy="238.0" r="2.52"/><circle cx="189.0" cy="238.0" r="2.54"/><circle cx="203.0" cy="238.0" r="2.54"/><circle cx="217.0" cy="238.0" r="2.53"/><circle cx="231.0" cy="238.0" r="2.51"/><circle cx="245.0" cy="238.0" r="2.49"/><circle cx="259.0" cy="238.0" r="2.45"/><circle cx="273.0" cy="238.0" r="2.40"/><circle cx="287.0" cy="238.0" r="2.34"/><circle cx="301.0" cy="238.0" r="2.28"/><circle cx="315.0" cy="238.0" r="2.20"/><circle cx="329.0" cy="238.0" r="2.12"/><circle cx="343.0" cy="238.0" r="2.04"/><circle cx="357.0" cy="238.0" r="1.95"/><circle cx="371.0" cy="238.0" r="1.85"/><circle cx="385.0" cy="238.0" r="1.75"/><circle cx="399.0" cy="238.0" r="1.64"/><circle cx="0.0" cy="252.0" r="1.51"/><circle cx="14.0" cy="252.0" r="1.61"/><circle cx="28.0" cy="252.0" r="1.70"/><circle cx="42.0" cy="252.0" r="1.80"/><circle cx="56.0" cy="252.0" r="1.88"/><circle cx="70.0" cy="252.0" r="1.96"/><circle cx="84.0" cy="252.0" r="2.04"/><circle cx="98.0" cy="252.0" r="2.11"/><circle cx="112.0" cy="252.0" r="2.17"/><circle cx="126.0" cy="252.0" r="2.22"/><circle cx="140.0" cy="252.0" r="2.27"/><circle cx="154.0" cy="252.0" r="2.31"/><circle cx="168.0" cy="252.0" r="2.33"/><circle cx="182.0" cy="252.0" r="2.35"/><circle cx="196.0" cy="252.0" r="2.36"/><circle cx="210.0" cy="252.0" r="2.36"/><circle cx="224.0" cy="252.0" r="2.34"/><circle cx="238.0" cy="252.0" r="2.32"/><circle cx="252.0" cy="252.0" r="2.29"/><circle cx="266.0" cy="252.0" r="2.25"/><circle cx="280.0" cy="252.0" r="2.20"/><circle cx="294.0" cy="252.0" r="2.14"/><circle cx="308.0" cy="252.0" r="2.08"/><circle cx="322.0" cy="252.0" r="2.01"/><circle cx="336.0" cy="252.0" r="1.93"/><circle cx="350.0" cy="252.0" r="1.85"/><circle cx="364.0" cy="252.0" r="1.76"/><circle cx="378.0" cy="252.0" r="1.66"/><circle cx="392.0" cy="252.0" r="1.57"/><circle cx="7.0" cy="266.0" r="1.43"/><circle cx="21.0" cy="266.0" r="1.52"/><circle cx="35.0" cy="266.0" r="1.61"/><circle cx="49.0" cy="266.0" r="1.70"/><circle cx="63.0" cy="266.0" r="1.77"/><circle cx="77.0" cy="266.0" r="1.85"/><circle cx="91.0" cy="266.0" r="1.92"/><circle cx="105.0" cy="266.0" r="1.98"/><circle cx="119.0" cy="266.0" r="2.03"/><circle cx="133.0" cy="266.0" r="2.08"/><circle cx="147.0" cy="266.0" r="2.12"/><circle cx="161.0" cy="266.0" r="2.15"/><circle cx="175.0" cy="266.0" r="2.17"/><circle cx="189.0" cy="266.0" r="2.18"/><circle cx="203.0" cy="266.0" r="2.18"/><circle cx="217.0" cy="266.0" r="2.18"/><circle cx="231.0" cy="266.0" r="2.16"/><circle cx="245.0" cy="266.0" r="2.13"/><circle cx="259.0" cy="266.0" r="2.10"/><circle cx="273.0" cy="266.0" r="2.06"/><circle cx="287.0" cy="266.0" r="2.01"/><circle cx="301.0" cy="266.0" r="1.95"/><circle cx="315.0" cy="266.0" r="1.89"/><circle cx="329.0" cy="266.0" r="1.82"/><circle cx="343.0" cy="266.0" r="1.74"/><circle cx="357.0" cy="266.0" r="1.66"/><circle cx="371.0" cy="266.0" r="1.57"/><circle cx="385.0" cy="266.0" r="1.48"/><circle cx="399.0" cy="266.0" r="1.39"/><circle cx="0.0" cy="280.0" r="1.26"/><circle cx="14.0" cy="280.0" r="1.35"/><circle cx="28.0" cy="280.0" r="1.43"/><circle cx="42.0" cy="280.0" r="1.51"/><circle cx="56.0" cy="280.0" r="1.59"/><circle cx="70.0" cy="280.0" r="1.66"/><circle cx="84.0" cy="280.0" r="1.73"/><circle cx="98.0" cy="280.0" r="1.79"/><circle cx="112.0" cy="280.0" r="1.84"/><circle cx="126.0" cy="280.0" r="1.89"/><circle cx="140.0" cy="280.0" r="1.93"/><circle cx="154.0" cy="280.0" r="1.96"/><circle cx="168.0" cy="280.0" r="1.99"/><circle cx="182.0" cy="280.0" r="2.00"/><circle cx="196.0" cy="280.0" r="2.01"/><circle cx="210.0" cy="280.0" r="2.01"/><circle cx="224.0" cy="280.0" r="2.00"/><circle cx="238.0" cy="280.0" r="1.98"/><circle cx="252.0" cy="280.0" r="1.95"/><circle cx="266.0" cy="280.0" r="1.91"/><circle cx="280.0" cy="280.0" r="1.87"/><circle cx="294.0" cy="280.0" r="1.82"/><circle cx="308.0" cy="280.0" r="1.76"/><circle cx="322.0" cy="280.0" r="1.70"/><circle cx="336.0" cy="280.0" r="1.63"/><circle cx="350.0" cy="280.0" r="1.56"/><circle cx="364.0" cy="280.0" r="1.48"/><circle cx="378.0" cy="280.0" r="1.39"/><circle cx="392.0" cy="280.0" r="1.31"/><circle cx="7.0" cy="294.0" r="1.17"/><circle cx="21.0" cy="294.0" r="1.26"/><circle cx="35.0" cy="294.0" r="1.33"/><circle cx="49.0" cy="294.0" r="1.41"/><circle cx="63.0" cy="294.0" r="1.48"/><circle cx="77.0" cy="294.0" r="1.54"/><circle cx="91.0" cy="294.0" r="1.60"/><circle cx="105.0" cy="294.0" r="1.66"/><circle cx="119.0" cy="294.0" r="1.71"/><circle cx="133.0" cy="294.0" r="1.75"/><circle cx="147.0" cy="294.0" r="1.78"/><circle cx="161.0" cy="294.0" r="1.81"/><circle cx="175.0" cy="294.0" r="1.82"/><circle cx="189.0" cy="294.0" r="1.83"/><circle cx="203.0" cy="294.0" r="1.84"/><circle cx="217.0" cy="294.0" r="1.83"/><circle cx="231.0" cy="294.0" r="1.82"/><circle cx="245.0" cy="294.0" r="1.80"/><circle cx="259.0" cy="294.0" r="1.77"/><circle cx="273.0" cy="294.0" r="1.73"/><circle cx="287.0" cy="294.0" r="1.69"/><circle cx="301.0" cy="294.0" r="1.64"/><circle cx="315.0" cy="294.0" r="1.58"/><circle cx="329.0" cy="294.0" r="1.52"/><circle cx="343.0" cy="294.0" r="1.45"/><circle cx="357.0" cy="294.0" r="1.38"/><circle cx="371.0" cy="294.0" r="1.30"/><circle cx="385.0" cy="294.0" r="1.22"/><circle cx="399.0" cy="294.0" r="1.14"/><circle cx="0.0" cy="308.0" r="1.01"/><circle cx="14.0" cy="308.0" r="1.09"/><circle cx="28.0" cy="308.0" r="1.16"/><circle cx="42.0" cy="308.0" r="1.23"/><circle cx="56.0" cy="308.0" r="1.30"/><circle cx="70.0" cy="308.0" r="1.37"/><circle cx="84.0" cy="308.0" r="1.43"/><circle cx="98.0" cy="308.0" r="1.48"/><circle cx="112.0" cy="308.0" r="1.53"/><circle cx="126.0" cy="308.0" r="1.57"/><circle cx="140.0" cy="308.0" r="1.60"/><circle cx="154.0" cy="308.0" r="1.63"/><circle cx="168.0" cy="308.0" r="1.65"/><circle cx="182.0" cy="308.0" r="1.66"/><circle cx="196.0" cy="308.0" r="1.67"/><circle cx="210.0" cy="308.0" r="1.67"/><circle cx="224.0" cy="308.0" r="1.66"/><circle cx="238.0" cy="308.0" r="1.64"/><circle cx="252.0" cy="308.0" r="1.62"/><circle cx="266.0" cy="308.0" r="1.59"/><circle cx="280.0" cy="308.0" r="1.55"/><circle cx="294.0" cy="308.0" r="1.51"/><circle cx="308.0" cy="308.0" r="1.46"/><circle cx="322.0" cy="308.0" r="1.40"/><circle cx="336.0" cy="308.0" r="1.34"/><circle cx="350.0" cy="308.0" r="1.27"/><circle cx="364.0" cy="308.0" r="1.20"/><circle cx="378.0" cy="308.0" r="1.13"/><circle cx="392.0" cy="308.0" r="1.05"/><circle cx="7.0" cy="322.0" r="0.92"/><circle cx="21.0" cy="322.0" r="1.00"/><circle cx="35.0" cy="322.0" r="1.06"/><circle cx="49.0" cy="322.0" r="1.13"/><circle cx="63.0" cy="322.0" r="1.19"/><circle cx="77.0" cy="322.0" r="1.25"/><circle cx="91.0" cy="322.0" r="1.30"/><circle cx="105.0" cy="322.0" r="1.35"/><circle cx="119.0" cy="322.0" r="1.39"/><circle cx="133.0" cy="322.0" r="1.43"/><circle cx="147.0" cy="322.0" r="1.46"/><circle cx="161.0" cy="322.0" r="1.48"/><circle cx="175.0" cy="322.0" r="1.50"/><circle cx="189.0" cy="322.0" r="1.50"/><circle cx="203.0" cy="322.0" r="1.51"/><circle cx="217.0" cy="322.0" r="1.50"/><circle cx="231.0" cy="322.0" r="1.49"/><circle cx="245.0" cy="322.0" r="1.47"/><circle cx="259.0" cy="322.0" r="1.45"/><circle cx="273.0" cy="322.0" r="1.41"/><circle cx="287.0" cy="322.0" r="1.38"/><circle cx="301.0" cy="322.0" r="1.33"/><circle cx="315.0" cy="322.0" r="1.28"/><circle cx="329.0" cy="322.0" r="1.23"/><circle cx="343.0" cy="322.0" r="1.17"/><circle cx="357.0" cy="322.0" r="1.10"/><circle cx="371.0" cy="322.0" r="1.04"/><circle cx="385.0" cy="322.0" r="0.96"/><circle cx="399.0" cy="322.0" r="0.89"/><circle cx="0.0" cy="336.0" r="0.77"/><circle cx="14.0" cy="336.0" r="0.83"/><circle cx="28.0" cy="336.0" r="0.90"/><circle cx="42.0" cy="336.0" r="0.97"/><circle cx="56.0" cy="336.0" r="1.03"/><circle cx="70.0" cy="336.0" r="1.08"/><circle cx="84.0" cy="336.0" r="1.13"/><circle cx="98.0" cy="336.0" r="1.18"/><circle cx="112.0" cy="336.0" r="1.22"/><circle cx="126.0" cy="336.0" r="1.26"/><circle cx="140.0" cy="336.0" r="1.29"/><circle cx="154.0" cy="336.0" r="1.31"/><circle cx="168.0" cy="336.0" r="1.33"/><circle cx="182.0" cy="336.0" r="1.34"/><circle cx="196.0" cy="336.0" r="1.35"/><circle cx="210.0" cy="336.0" r="1.35"/><circle cx="224.0" cy="336.0" r="1.34"/><circle cx="238.0" cy="336.0" r="1.32"/><circle cx="252.0" cy="336.0" r="1.30"/><circle cx="266.0" cy="336.0" r="1.28"/><circle cx="280.0" cy="336.0" r="1.24"/><circle cx="294.0" cy="336.0" r="1.20"/><circle cx="308.0" cy="336.0" r="1.16"/><circle cx="322.0" cy="336.0" r="1.11"/><circle cx="336.0" cy="336.0" r="1.06"/><circle cx="350.0" cy="336.0" r="1.00"/><circle cx="364.0" cy="336.0" r="0.94"/><circle cx="378.0" cy="336.0" r="0.87"/><circle cx="392.0" cy="336.0" r="0.81"/><circle cx="7.0" cy="350.0" r="0.68"/><circle cx="21.0" cy="350.0" r="0.74"/><circle cx="35.0" cy="350.0" r="0.81"/><circle cx="49.0" cy="350.0" r="0.86"/><circle cx="63.0" cy="350.0" r="0.92"/><circle cx="77.0" cy="350.0" r="0.97"/><circle cx="91.0" cy="350.0" r="1.01"/><circle cx="105.0" cy="350.0" r="1.06"/><circle cx="119.0" cy="350.0" r="1.09"/><circle cx="133.0" cy="350.0" r="1.12"/><circle cx="147.0" cy="350.0" r="1.15"/><circle cx="161.0" cy="350.0" r="1.17"/><circle cx="175.0" cy="350.0" r="1.18"/><circle cx="189.0" cy="350.0" r="1.19"/><circle cx="203.0" cy="350.0" r="1.19"/><circle cx="217.0" cy="350.0" r="1.19"/><circle cx="231.0" cy="350.0" r="1.18"/><circle cx="245.0" cy="350.0" r="1.16"/><circle cx="259.0" cy="350.0" r="1.14"/><circle cx="273.0" cy="350.0" r="1.11"/><circle cx="287.0" cy="350.0" r="1.08"/><circle cx="301.0" cy="350.0" r="1.04"/><circle cx="315.0" cy="350.0" r="1.00"/><circle cx="329.0" cy="350.0" r="0.95"/><circle cx="343.0" cy="350.0" r="0.90"/><circle cx="357.0" cy="350.0" r="0.84"/><circle cx="371.0" cy="350.0" r="0.78"/><circle cx="385.0" cy="350.0" r="0.72"/><circle cx="399.0" cy="350.0" r="0.65"/><circle cx="0.0" cy="364.0" r="0.53"/><circle cx="14.0" cy="364.0" r="0.60"/><circle cx="28.0" cy="364.0" r="0.65"/><circle cx="42.0" cy="364.0" r="0.71"/><circle cx="56.0" cy="364.0" r="0.76"/><circle cx="70.0" cy="364.0" r="0.81"/><circle cx="84.0" cy="364.0" r="0.85"/><circle cx="98.0" cy="364.0" r="0.90"/><circle cx="112.0" cy="364.0" r="0.93"/><circle cx="126.0" cy="364.0" r="0.96"/><circle cx="140.0" cy="364.0" r="0.99"/><circle cx="154.0" cy="364.0" r="1.01"/><circle cx="168.0" cy="364.0" r="1.03"/><circle cx="182.0" cy="364.0" r="1.04"/><circle cx="196.0" cy="364.0" r="1.04"/><circle cx="210.0" cy="364.0" r="1.04"/><circle cx="224.0" cy="364.0" r="1.03"/><circle cx="238.0" cy="364.0" r="1.02"/><circle cx="252.0" cy="364.0" r="1.00"/><circle cx="266.0" cy="364.0" r="0.98"/><circle cx="280.0" cy="364.0" r="0.95"/><circle cx="294.0" cy="364.0" r="0.92"/><circle cx="308.0" cy="364.0" r="0.88"/><circle cx="322.0" cy="364.0" r="0.84"/><circle cx="336.0" cy="364.0" r="0.79"/><circle cx="350.0" cy="364.0" r="0.74"/><circle cx="364.0" cy="364.0" r="0.69"/><circle cx="378.0" cy="364.0" r="0.63"/><circle cx="392.0" cy="364.0" r="0.57"/><circle cx="7.0" cy="378.0" r="0.45"/><circle cx="21.0" cy="378.0" r="0.51"/><circle cx="35.0" cy="378.0" r="0.56"/><circle cx="49.0" cy="378.0" r="0.61"/><circle cx="63.0" cy="378.0" r="0.66"/><circle cx="77.0" cy="378.0" r="0.70"/><circle cx="91.0" cy="378.0" r="0.74"/><circle cx="105.0" cy="378.0" r="0.78"/><circle cx="119.0" cy="378.0" r="0.81"/><circle cx="133.0" cy="378.0" r="0.84"/><circle cx="147.0" cy="378.0" r="0.86"/><circle cx="161.0" cy="378.0" r="0.88"/><circle cx="175.0" cy="378.0" r="0.89"/><circle cx="189.0" cy="378.0" r="0.89"/><circle cx="203.0" cy="378.0" r="0.90"/><circle cx="217.0" cy="378.0" r="0.89"/><circle cx="231.0" cy="378.0" r="0.88"/><circle cx="245.0" cy="378.0" r="0.87"/><circle cx="259.0" cy="378.0" r="0.85"/><circle cx="273.0" cy="378.0" r="0.83"/><circle cx="287.0" cy="378.0" r="0.80"/><circle cx="301.0" cy="378.0" r="0.76"/><circle cx="315.0" cy="378.0" r="0.73"/><circle cx="329.0" cy="378.0" r="0.68"/><circle cx="343.0" cy="378.0" r="0.64"/><circle cx="357.0" cy="378.0" r="0.59"/><circle cx="371.0" cy="378.0" r="0.54"/><circle cx="385.0" cy="378.0" r="0.49"/><circle cx="399.0" cy="378.0" r="0.43"/><circle cx="14.0" cy="392.0" r="0.37"/><circle cx="28.0" cy="392.0" r="0.42"/><circle cx="42.0" cy="392.0" r="0.47"/><circle cx="56.0" cy="392.0" r="0.51"/><circle cx="70.0" cy="392.0" r="0.56"/><circle cx="84.0" cy="392.0" r="0.59"/><circle cx="98.0" cy="392.0" r="0.63"/><circle cx="112.0" cy="392.0" r="0.66"/><circle cx="126.0" cy="392.0" r="0.69"/><circle cx="140.0" cy="392.0" r="0.71"/><circle cx="154.0" cy="392.0" r="0.73"/><circle cx="168.0" cy="392.0" r="0.74"/><circle cx="182.0" cy="392.0" r="0.75"/><circle cx="196.0" cy="392.0" r="0.76"/><circle cx="210.0" cy="392.0" r="0.75"/><circle cx="224.0" cy="392.0" r="0.75"/><circle cx="238.0" cy="392.0" r="0.74"/><circle cx="252.0" cy="392.0" r="0.72"/><circle cx="266.0" cy="392.0" r="0.70"/><circle cx="280.0" cy="392.0" r="0.68"/><circle cx="294.0" cy="392.0" r="0.65"/><circle cx="308.0" cy="392.0" r="0.62"/><circle cx="322.0" cy="392.0" r="0.58"/><circle cx="336.0" cy="392.0" r="0.54"/><circle cx="350.0" cy="392.0" r="0.50"/><circle cx="364.0" cy="392.0" r="0.45"/><circle cx="378.0" cy="392.0" r="0.40"/><circle cx="392.0" cy="392.0" r="0.35"/></g></svg>