<svg xmlns="http://www.w3.org/2000/svg" viewBox="0 0 240 240" width="240" height="240" role="img" aria-label="A place on the line"><rect x="0" y="0" width="240" height="240" rx="28" fill="#2B211C"/><defs><clipPath id="d14"><circle cx="120" cy="120" r="120"/></clipPath></defs><g clip-path="url(#d14)"><rect x="0" y="0" width="240" height="144" rx="0" fill="#CFE3F0"/><rect x="0" y="144" width="240" height="96" rx="0" fill="#FFFFFF"/><path d="M119.76 82.90 L121.17 86.09 L127.51 83.44 L132.56 87.70 L132.28 107.69 L136.26 109.29 L135.65 113.69 L137.12 115.94 L139.04 115.44 L141.16 120.48 L137.65 123.61 L137.50 122.03 L134.84 124.60 L132.06 124.20 L129.91 127.51 L127.74 125.28 L127.16 129.05 L126.53 126.07 L124.63 126.52 L125.04 129.01 L121.94 127.78 L122.39 125.43 L120.35 126.12 L119.67 131.42 L111.59 136.61 L109.51 136.13 L109.83 134.37 L107.99 135.64 L107.92 138.65 L102.73 146.00 L99.82 141.20 L98.83 113.34 L101.16 114.45 L101.76 111.57 L103.44 112.20 L102.53 110.32 L107.28 104.82 L106.94 100.45 L109.96 93.12 L117.88 82.00Z" fill="#FFFFFF"/><rect x="0" y="142.5" width="240" height="3" fill="#2B211C"/></g></svg>