<svg xmlns="http://www.w3.org/2000/svg" viewBox="0 0 32 32" width="32" height="32" role="img" aria-label="Generation Maine"><circle cx="16" cy="16" r="16" fill="#104836"/><path d="M7.2 6.78 L7.3 6.78 L7.4 6.78 L7.49 6.78 L7.59 6.78 L7.69 6.79 L7.79 6.79 L7.88 6.79 L7.98 6.79 L8.08 6.79 L8.18 6.79 L8.28 6.8 L8.37 6.8 L8.47 6.8 L8.57 6.8 L8.67 6.81 L8.76 6.81 L8.86 6.81 L8.96 6.82 L9.06 6.82 L9.16 6.82 L9.25 6.83 L9.35 6.83 L9.45 6.84 L9.55 6.84 L9.64 6.85 L9.74 6.85 L9.84 6.86 L9.94 6.86 L10.04 6.87 L10.13 6.87 L10.23 6.88 L10.33 6.88 L10.43 6.89 L10.52 6.89 L10.62 6.9 L10.72 6.91 L10.82 6.91 L10.92 6.92 L11.01 6.92 L11.11 6.93 L11.21 6.93 L11.31 6.94 L11.4 6.95 L11.5 6.95 L11.6 6.96 L11.7 6.96 L11.8 6.97 L11.89 6.98 L11.99 6.98 L12.09 6.99 L12.19 6.99 L12.28 7 L12.38 7 L12.48 7.01 L12.58 7.02 L12.68 7.02 L12.77 7.03 L12.87 7.03 L12.97 7.04 L13.07 7.04 L13.16 7.05 L13.26 7.05 L13.36 7.06 L13.46 7.06 L13.56 7.07 L13.65 7.07 L13.75 7.08 L13.85 7.08 L13.95 7.08 L14.04 7.09 L14.14 7.09 L14.24 7.1 L14.34 7.1 L14.44 7.1 L14.53 7.11 L14.63 7.11 L14.73 7.12 L14.83 7.12 L14.92 7.12 L15.02 7.13 L15.12 7.13 L15.22 7.13 L15.32 7.14 L15.41 7.14 L15.51 7.14 L15.61 7.14 L15.71 7.15 L15.8 7.15 L15.9 7.15 L16 7.15 L16.1 7.16 L16.2 7.16 L16.29 7.16 L16.39 7.16 L16.49 7.17 L16.59 7.17 L16.68 7.17 L16.78 7.17 L16.88 7.18 L16.98 7.18 L17.08 7.18 L17.17 7.18 L17.27 7.19 L17.37 7.19 L17.47 7.19 L17.56 7.19 L17.66 7.19 L17.76 7.2 L17.86 7.2 L17.96 7.2 L18.05 7.2 L18.15 7.2 L18.25 7.2 L18.35 7.2 L18.44 7.2 L18.54 7.2 L18.64 7.2 L18.74 7.2 L18.84 7.2 L18.93 7.2 L19.03 7.2 L19.13 7.2 L19.23 7.2 L19.32 7.2 L19.42 7.2 L19.52 7.2 L19.62 7.2 L19.72 7.2 L19.81 7.2 L19.91 7.2 L20.01 7.2 L20.11 7.2 L20.2 7.2 L20.3 7.2 L20.4 7.2 L20.5 7.2 L20.6 7.2 L20.69 7.2 L20.79 7.2 L20.89 7.2 L20.99 7.2 L21.08 7.2 L21.18 7.2 L21.28 7.2 L21.38 7.2 L21.48 7.2 L21.57 7.2 L21.67 7.2 L21.77 7.2 L21.87 7.2 L21.96 7.2 L22.06 7.2 L22.16 7.2 L22.26 7.2 L22.36 7.2 L22.45 7.2 L22.55 7.2 L22.65 7.2 L22.75 7.2 L22.84 7.2 L22.94 7.2 L23.04 7.2 L23.14 7.2 L23.24 7.2 L23.33 7.2 L23.43 7.2 L23.53 7.2 L23.63 7.2 L23.72 7.2 L23.82 7.2 L23.92 7.2 L24.02 7.2 L24.12 7.2 L24.21 7.2 L24.31 7.2 L24.41 7.2 L24.51 7.2 L24.6 7.2 L24.7 7.2 L24.8 7.2" stroke="#F4F0E6" stroke-width="0.6" stroke-linecap="round" stroke-linejoin="round" fill="none"/><path d="M7.2 8.39 L7.3 8.39 L7.4 8.39 L7.49 8.4 L7.59 8.4 L7.69 8.41 L7.79 8.42 L7.88 8.42 L7.98 8.43 L8.08 8.44 L8.18 8.45 L8.28 8.46 L8.37 8.48 L8.47 8.49 L8.57 8.51 L8.67 8.53 L8.76 8.54 L8.86 8.56 L8.96 8.58 L9.06 8.6 L9.16 8.63 L9.25 8.65 L9.35 8.67 L9.45 8.7 L9.55 8.72 L9.64 8.75 L9.74 8.78 L9.84 8.8 L9.94 8.83 L10.04 8.86 L10.13 8.89 L10.23 8.92 L10.33 8.95 L10.43 8.98 L10.52 9.01 L10.62 9.04 L10.72 9.08 L10.82 9.11 L10.92 9.14 L11.01 9.17 L11.11 9.21 L11.21 9.24 L11.31 9.27 L11.4 9.3 L11.5 9.34 L11.6 9.37 L11.7 9.4 L11.8 9.44 L11.89 9.47 L11.99 9.5 L12.09 9.53 L12.19 9.57 L12.28 9.6 L12.38 9.63 L12.48 9.66 L12.58 9.69 L12.68 9.72 L12.77 9.75 L12.87 9.78 L12.97 9.81 L13.07 9.84 L13.16 9.87 L13.26 9.89 L13.36 9.92 L13.46 9.95 L13.56 9.98 L13.65 10 L13.75 10.03 L13.85 10.05 L13.95 10.08 L14.04 10.1 L14.14 10.12 L14.24 10.15 L14.34 10.17 L14.44 10.19 L14.53 10.21 L14.63 10.23 L14.73 10.25 L14.83 10.27 L14.92 10.29 L15.02 10.31 L15.12 10.32 L15.22 10.34 L15.32 10.36 L15.41 10.37 L15.51 10.39 L15.61 10.4 L15.71 10.42 L15.8 10.43 L15.9 10.45 L16 10.46 L16.1 10.48 L16.2 10.49 L16.29 10.5 L16.39 10.52 L16.49 10.53 L16.59 10.55 L16.68 10.56 L16.78 10.58 L16.88 10.59 L16.98 10.61 L17.08 10.62 L17.17 10.64 L17.27 10.65 L17.37 10.66 L17.47 10.67 L17.56 10.68 L17.66 10.69 L17.76 10.7 L17.86 10.7 L17.96 10.71 L18.05 10.71 L18.15 10.71 L18.25 10.72 L18.35 10.72 L18.44 10.72 L18.54 10.72 L18.64 10.72 L18.74 10.72 L18.84 10.72 L18.93 10.72 L19.03 10.72 L19.13 10.72 L19.23 10.72 L19.32 10.72 L19.42 10.72 L19.52 10.72 L19.62 10.72 L19.72 10.72 L19.81 10.72 L19.91 10.72 L20.01 10.72 L20.11 10.72 L20.2 10.72 L20.3 10.72 L20.4 10.72 L20.5 10.72 L20.6 10.72 L20.69 10.72 L20.79 10.72 L20.89 10.72 L20.99 10.72 L21.08 10.72 L21.18 10.72 L21.28 10.72 L21.38 10.72 L21.48 10.72 L21.57 10.72 L21.67 10.72 L21.77 10.72 L21.87 10.72 L21.96 10.72 L22.06 10.72 L22.16 10.72 L22.26 10.72 L22.36 10.72 L22.45 10.72 L22.55 10.72 L22.65 10.72 L22.75 10.72 L22.84 10.72 L22.94 10.72 L23.04 10.72 L23.14 10.72 L23.24 10.72 L23.33 10.72 L23.43 10.72 L23.53 10.72 L23.63 10.72 L23.72 10.72 L23.82 10.72 L23.92 10.72 L24.02 10.72 L24.12 10.72 L24.21 10.72 L24.31 10.72 L24.41 10.72 L24.51 10.72 L24.6 10.72 L24.7 10.72 L24.8 10.72" stroke="#F4F0E6" stroke-width="0.78" stroke-linecap="round" stroke-linejoin="round" fill="none"/><path d="M7.2 11.83 L7.3 11.83 L7.4 11.83 L7.49 11.84 L7.59 11.85 L7.69 11.85 L7.79 11.86 L7.88 11.87 L7.98 11.88 L8.08 11.9 L8.18 11.91 L8.28 11.93 L8.37 11.94 L8.47 11.96 L8.57 11.98 L8.67 12.01 L8.76 12.03 L8.86 12.06 L8.96 12.09 L9.06 12.12 L9.16 12.15 L9.25 12.18 L9.35 12.22 L9.45 12.25 L9.55 12.29 L9.64 12.33 L9.74 12.38 L9.84 12.42 L9.94 12.46 L10.04 12.51 L10.13 12.56 L10.23 12.6 L10.33 12.65 L10.43 12.7 L10.52 12.75 L10.62 12.79 L10.72 12.84 L10.82 12.89 L10.92 12.93 L11.01 12.98 L11.11 13.02 L11.21 13.07 L11.31 13.11 L11.4 13.15 L11.5 13.19 L11.6 13.23 L11.7 13.27 L11.8 13.31 L11.89 13.34 L11.99 13.38 L12.09 13.42 L12.19 13.45 L12.28 13.49 L12.38 13.52 L12.48 13.55 L12.58 13.58 L12.68 13.61 L12.77 13.64 L12.87 13.67 L12.97 13.7 L13.07 13.73 L13.16 13.75 L13.26 13.78 L13.36 13.8 L13.46 13.83 L13.56 13.85 L13.65 13.87" stroke="#EFB443" stroke-width="0.96" stroke-linecap="round" stroke-linejoin="round" fill="none"/><path d="M13.65 13.87 L13.75 13.89 L13.85 13.91 L13.95 13.93 L14.04 13.95 L14.14 13.96 L14.24 13.98 L14.34 14 L14.44 14.01 L14.53 14.02 L14.63 14.04 L14.73 14.05 L14.83 14.06 L14.92 14.07 L15.02 14.09 L15.12 14.1 L15.22 14.11 L15.32 14.11 L15.41 14.12 L15.51 14.13 L15.61 14.14 L15.71 14.15 L15.8 14.15 L15.9 14.16 L16 14.17 L16.1 14.17 L16.2 14.18 L16.29 14.18 L16.39 14.19 L16.49 14.19 L16.59 14.2 L16.68 14.2 L16.78 14.21 L16.88 14.21 L16.98 14.21 L17.08 14.22 L17.17 14.22 L17.27 14.22 L17.37 14.23 L17.47 14.23 L17.56 14.23 L17.66 14.23 L17.76 14.24 L17.86 14.24 L17.96 14.24 L18.05 14.24 L18.15 14.24 L18.25 14.24 L18.35 14.24 L18.44 14.24 L18.54 14.24 L18.64 14.24 L18.74 14.24 L18.84 14.24 L18.93 14.24 L19.03 14.24 L19.13 14.24 L19.23 14.24 L19.32 14.24 L19.42 14.24 L19.52 14.24 L19.62 14.24 L19.72 14.24 L19.81 14.24 L19.91 14.24 L20.01 14.24 L20.11 14.24 L20.2 14.24 L20.3 14.24 L20.4 14.24 L20.5 14.24 L20.6 14.24 L20.69 14.24 L20.79 14.24 L20.89 14.24 L20.99 14.24 L21.08 14.24 L21.18 14.24 L21.28 14.24 L21.38 14.24 L21.48 14.24 L21.57 14.24 L21.67 14.24 L21.77 14.24 L21.87 14.24 L21.96 14.24 L22.06 14.24 L22.16 14.24 L22.26 14.24 L22.36 14.24 L22.45 14.24 L22.55 14.24 L22.65 14.24 L22.75 14.24 L22.84 14.24 L22.94 14.24 L23.04 14.24 L23.14 14.24 L23.24 14.24 L23.33 14.24 L23.43 14.24 L23.53 14.24 L23.63 14.24 L23.72 14.24 L23.82 14.24 L23.92 14.24 L24.02 14.24 L24.12 14.24 L24.21 14.24 L24.31 14.24 L24.41 14.24 L24.51 14.24 L24.6 14.24 L24.7 14.24 L24.8 14.24" stroke="#F4F0E6" stroke-width="0.96" stroke-linecap="round" stroke-linejoin="round" fill="none"/><path d="M7.2 11.83 L7.3 11.83 L7.4 11.83 L7.49 11.84 L7.59 11.85 L7.69 11.85 L7.79 11.86 L7.88 11.87 L7.98 11.88 L8.08 11.9 L8.18 11.91 L8.28 11.93 L8.37 11.94 L8.47 11.96 L8.57 11.98 L8.67 12.01 L8.76 12.03 L8.86 12.06 L8.96 12.09 L9.06 12.12 L9.16 12.15 L9.25 12.18 L9.35 12.22 L9.45 12.26 L9.55 12.3 L9.64 12.34 L9.74 12.38 L9.84 12.43 L9.94 12.48 L10.04 12.53 L10.13 12.58 L10.23 12.63 L10.33 12.69 L10.43 12.75 L10.52 12.81 L10.62 12.88 L10.72 12.95 L10.82 13.02 L10.92 13.09 L11.01 13.17 L11.11 13.25 L11.21 13.34 L11.31 13.42 L11.4 13.52 L11.5 13.62 L11.6 13.72 L11.7 13.83 L11.8 13.94 L11.89 14.06 L11.99 14.18 L12.09 14.32 L12.19 14.46 L12.28 14.6 L12.38 14.75 L12.48 14.91 L12.58 15.07 L12.68 15.23 L12.77 15.4 L12.87 15.56 L12.97 15.73 L13.07 15.89 L13.16 16.04 L13.26 16.19 L13.36 16.32 L13.46 16.45 L13.56 16.56 L13.65 16.67 L13.75 16.76 L13.85 16.85 L13.95 16.92 L14.04 16.99 L14.14 17.05 L14.24 17.1 L14.34 17.15 L14.44 17.19 L14.53 17.23 L14.63 17.26 L14.73 17.3 L14.83 17.33 L14.92 17.36 L15.02 17.38" stroke="#EFB443" stroke-width="1.14" stroke-linecap="round" stroke-linejoin="round" fill="none"/><path d="M15.02 17.38 L15.12 17.41 L15.22 17.43 L15.32 17.45 L15.41 17.48 L15.51 17.5 L15.61 17.51 L15.71 17.53 L15.8 17.55 L15.9 17.56 L16 17.58 L16.1 17.59 L16.2 17.61 L16.29 17.62 L16.39 17.63 L16.49 17.64 L16.59 17.66 L16.68 17.67 L16.78 17.68 L16.88 17.69 L16.98 17.7 L17.08 17.71 L17.17 17.71 L17.27 17.72 L17.37 17.73 L17.47 17.74 L17.56 17.74 L17.66 17.74 L17.76 17.75 L17.86 17.75 L17.96 17.75 L18.05 17.76 L18.15 17.76 L18.25 17.76 L18.35 17.76 L18.44 17.76 L18.54 17.76 L18.64 17.76 L18.74 17.76 L18.84 17.76 L18.93 17.76 L19.03 17.76 L19.13 17.76 L19.23 17.76 L19.32 17.76 L19.42 17.76 L19.52 17.76 L19.62 17.76 L19.72 17.76 L19.81 17.76 L19.91 17.76 L20.01 17.76 L20.11 17.76 L20.2 17.76 L20.3 17.76 L20.4 17.76 L20.5 17.76 L20.6 17.76 L20.69 17.76 L20.79 17.76 L20.89 17.76 L20.99 17.76 L21.08 17.76 L21.18 17.76 L21.28 17.76 L21.38 17.76 L21.48 17.76 L21.57 17.76 L21.67 17.76 L21.77 17.76 L21.87 17.76 L21.96 17.76 L22.06 17.76 L22.16 17.76 L22.26 17.76 L22.36 17.76 L22.45 17.76 L22.55 17.76 L22.65 17.76 L22.75 17.76 L22.84 17.76 L22.94 17.76 L23.04 17.76 L23.14 17.76 L23.24 17.76 L23.33 17.76 L23.43 17.76 L23.53 17.76 L23.63 17.76 L23.72 17.76 L23.82 17.76 L23.92 17.76 L24.02 17.76 L24.12 17.76 L24.21 17.76 L24.31 17.76 L24.41 17.76 L24.51 17.76 L24.6 17.76 L24.7 17.76 L24.8 17.76" stroke="#F4F0E6" stroke-width="1.14" stroke-linecap="round" stroke-linejoin="round" fill="none"/><path d="M7.2 24.17 L7.3 24.17 L7.4 24.17 L7.49 24.16 L7.59 24.15 L7.69 24.15 L7.79 24.14 L7.88 24.13 L7.98 24.12 L8.08 24.1 L8.18 24.09 L8.28 24.07 L8.37 24.06 L8.47 24.04 L8.57 24.02 L8.67 23.99 L8.76 23.97 L8.86 23.94 L8.96 23.91 L9.06 23.88 L9.16 23.85 L9.25 23.82 L9.35 23.78 L9.45 23.74 L9.55 23.7 L9.64 23.66 L9.74 23.62 L9.84 23.57 L9.94 23.52 L10.04 23.47 L10.13 23.42 L10.23 23.37 L10.33 23.31 L10.43 23.26 L10.52 23.2 L10.62 23.14 L10.72 23.07 L10.82 23.01 L10.92 22.95 L11.01 22.89 L11.11 22.82 L11.21 22.76 L11.31 22.7 L11.4 22.64 L11.5 22.58 L11.6 22.53 L11.7 22.47 L11.8 22.42 L11.89 22.37 L11.99 22.32 L12.09 22.27 L12.19 22.23 L12.28 22.19 L12.38 22.15 L12.48 22.11 L12.58 22.07 L12.68 22.03 L12.77 21.99 L12.87 21.96 L12.97 21.93 L13.07 21.89 L13.16 21.86 L13.26 21.83 L13.36 21.8 L13.46 21.78 L13.56 21.75 L13.65 21.72 L13.75 21.7 L13.85 21.68 L13.95 21.65" stroke="#EFB443" stroke-width="1.32" stroke-linecap="round" stroke-linejoin="round" fill="none"/><path d="M13.95 21.65 L14.04 21.63 L14.14 21.61 L14.24 21.59 L14.34 21.57 L14.44 21.55 L14.53 21.54 L14.63 21.52 L14.73 21.51 L14.83 21.49 L14.92 21.48 L15.02 21.46 L15.12 21.45 L15.22 21.44 L15.32 21.43 L15.41 21.42 L15.51 21.41 L15.61 21.4 L15.71 21.39 L15.8 21.38 L15.9 21.38 L16 21.37 L16.1 21.36 L16.2 21.35 L16.29 21.35 L16.39 21.34 L16.49 21.34 L16.59 21.33 L16.68 21.33 L16.78 21.32 L16.88 21.32 L16.98 21.31 L17.08 21.31 L17.17 21.3 L17.27 21.3 L17.37 21.3 L17.47 21.29 L17.56 21.29 L17.66 21.29 L17.76 21.29 L17.86 21.28 L17.96 21.28 L18.05 21.28 L18.15 21.28 L18.25 21.28 L18.35 21.28 L18.44 21.28 L18.54 21.28 L18.64 21.28 L18.74 21.28 L18.84 21.28 L18.93 21.28 L19.03 21.28 L19.13 21.28 L19.23 21.28 L19.32 21.28 L19.42 21.28 L19.52 21.28 L19.62 21.28 L19.72 21.28 L19.81 21.28 L19.91 21.28 L20.01 21.28 L20.11 21.28 L20.2 21.28 L20.3 21.28 L20.4 21.28 L20.5 21.28 L20.6 21.28 L20.69 21.28 L20.79 21.28 L20.89 21.28 L20.99 21.28 L21.08 21.28 L21.18 21.28 L21.28 21.28 L21.38 21.28 L21.48 21.28 L21.57 21.28 L21.67 21.28 L21.77 21.28 L21.87 21.28 L21.96 21.28 L22.06 21.28 L22.16 21.28 L22.26 21.28 L22.36 21.28 L22.45 21.28 L22.55 21.28 L22.65 21.28 L22.75 21.28 L22.84 21.28 L22.94 21.28 L23.04 21.28 L23.14 21.28 L23.24 21.28 L23.33 21.28 L23.43 21.28 L23.53 21.28 L23.63 21.28 L23.72 21.28 L23.82 21.28 L23.92 21.28 L24.02 21.28 L24.12 21.28 L24.21 21.28 L24.31 21.28 L24.41 21.28 L24.51 21.28 L24.6 21.28 L24.7 21.28 L24.8 21.28" stroke="#F4F0E6" stroke-width="1.32" stroke-linecap="round" stroke-linejoin="round" fill="none"/><path d="M7.2 25.52 L7.3 25.52 L7.4 25.52 L7.49 25.52 L7.59 25.52 L7.69 25.52 L7.79 25.52 L7.88 25.52 L7.98 25.52 L8.08 25.52 L8.18 25.52 L8.28 25.52 L8.37 25.52 L8.47 25.52 L8.57 25.52 L8.67 25.52 L8.76 25.52 L8.86 25.52 L8.96 25.52 L9.06 25.52 L9.16 25.52 L9.25 25.52 L9.35 25.52 L9.45 25.52 L9.55 25.52 L9.64 25.52 L9.74 25.52 L9.84 25.52 L9.94 25.52 L10.04 25.52 L10.13 25.52 L10.23 25.52 L10.33 25.52 L10.43 25.52 L10.52 25.52 L10.62 25.52 L10.72 25.52 L10.82 25.52 L10.92 25.52 L11.01 25.52 L11.11 25.52 L11.21 25.52 L11.31 25.52 L11.4 25.52 L11.5 25.52 L11.6 25.52 L11.7 25.52 L11.8 25.52 L11.89 25.52 L11.99 25.52 L12.09 25.52 L12.19 25.52 L12.28 25.52 L12.38 25.52 L12.48 25.52 L12.58 25.52 L12.68 25.52 L12.77 25.52 L12.87 25.52 L12.97 25.52 L13.07 25.52 L13.16 25.52 L13.26 25.52 L13.36 25.52 L13.46 25.52 L13.56 25.52 L13.65 25.52 L13.75 25.52 L13.85 25.52 L13.95 25.49 L14.04 25.46 L14.14 25.44 L14.24 25.42 L14.34 25.39 L14.44 25.37 L14.53 25.35 L14.63 25.32 L14.73 25.3 L14.83 25.28 L14.92 25.26 L15.02 25.24 L15.12 25.22 L15.22 25.21 L15.32 25.19 L15.41 25.17 L15.51 25.15 L15.61 25.14 L15.71 25.12 L15.8 25.11 L15.9 25.09 L16 25.08 L16.1 25.06 L16.2 25.05 L16.29 25.03 L16.39 25.02 L16.49 25 L16.59 24.98 L16.68 24.97 L16.78 24.95 L16.88 24.94 L16.98 24.92 L17.08 24.9 L17.17 24.89 L17.27 24.88 L17.37 24.86 L17.47 24.85 L17.56 24.84 L17.66 24.83 L17.76 24.82 L17.86 24.82 L17.96 24.81 L18.05 24.81 L18.15 24.81 L18.25 24.8 L18.35 24.8 L18.44 24.8 L18.54 24.8 L18.64 24.8 L18.74 24.8 L18.84 24.8 L18.93 24.8 L19.03 24.8 L19.13 24.8 L19.23 24.8 L19.32 24.8 L19.42 24.8 L19.52 24.8 L19.62 24.8 L19.72 24.8 L19.81 24.8 L19.91 24.8 L20.01 24.8 L20.11 24.8 L20.2 24.8 L20.3 24.8 L20.4 24.8 L20.5 24.8 L20.6 24.8 L20.69 24.8 L20.79 24.8 L20.89 24.8 L20.99 24.8 L21.08 24.8 L21.18 24.8 L21.28 24.8 L21.38 24.8 L21.48 24.8 L21.57 24.8 L21.67 24.8 L21.77 24.8 L21.87 24.8 L21.96 24.8 L22.06 24.8 L22.16 24.8 L22.26 24.8 L22.36 24.8 L22.45 24.8 L22.55 24.8 L22.65 24.8 L22.75 24.8 L22.84 24.8 L22.94 24.8 L23.04 24.8 L23.14 24.8 L23.24 24.8 L23.33 24.8 L23.43 24.8 L23.53 24.8 L23.63 24.8 L23.72 24.8 L23.82 24.8 L23.92 24.8 L24.02 24.8 L24.12 24.8 L24.21 24.8 L24.31 24.8 L24.41 24.8 L24.51 24.8 L24.6 24.8 L24.7 24.8 L24.8 24.8" stroke="#F4F0E6" stroke-width="1.5" stroke-linecap="round" stroke-linejoin="round" fill="none"/></svg>