<svg xmlns="http://www.w3.org/2000/svg" viewBox="0 0 240 240" width="240" height="240" role="img" aria-label="Generation Maine"><circle cx="120" cy="120" r="120" fill="#104836"/><g transform="translate(65.75 38)"><path d="M48.1 3.94 L51.16 3.94" stroke="#F4F0E6" stroke-width="4.26" stroke-linecap="round" fill="none"/><path d="M72.6 3.94 L72.6 3.94" stroke="#F4F0E6" stroke-width="4.26" stroke-linecap="round" fill="none"/><path d="M74.74 3.94 L74.75 3.94" stroke="#F4F0E6" stroke-width="4.26" stroke-linecap="round" fill="none"/><path d="M40.78 14.28 L83.66 14.28" stroke="#F4F0E6" stroke-width="4.46" stroke-linecap="round" fill="none"/><path d="M33.58 24.62 L84.13 24.62" stroke="#F4F0E6" stroke-width="4.66" stroke-linecap="round" fill="none"/><path d="M29.99 34.96 L84.11 34.96" stroke="#F4F0E6" stroke-width="4.85" stroke-linecap="round" fill="none"/><path d="M24.26 45.31 L84.14 45.31" stroke="#F4F0E6" stroke-width="5.05" stroke-linecap="round" fill="none"/><path d="M22.81 55.65 L84.05 55.65" stroke="#F4F0E6" stroke-width="5.25" stroke-linecap="round" fill="none"/><path d="M18.25 65.99 L83.1 65.99" stroke="#F4F0E6" stroke-width="5.44" stroke-linecap="round" fill="none"/><path d="M14.7 76.34 L92.47 76.34" stroke="#F4F0E6" stroke-width="5.64" stroke-linecap="round" fill="none"/><path d="M3.33 86.68 L94.81 86.68" stroke="#F4F0E6" stroke-width="5.84" stroke-linecap="round" fill="none"/><path d="M4.03 97.02 L104.72 97.02" stroke="#F4F0E6" stroke-width="6.04" stroke-linecap="round" fill="none"/><path d="M4.6 107.37 L89.16 107.37" stroke="#F4F0E6" stroke-width="6.23" stroke-linecap="round" fill="none"/><path d="M5.13 117.71 L52.19 117.71" stroke="#F4F0E6" stroke-width="6.43" stroke-linecap="round" fill="none"/><path d="M5.59 128.05 L48.25 128.05" stroke="#F4F0E6" stroke-width="6.63" stroke-linecap="round" fill="none"/><path d="M6.03 138.39 L19.94 138.39" stroke="#F4F0E6" stroke-width="6.82" stroke-linecap="round" fill="none"/><path d="M6.74 148.74 L14.9 148.74" stroke="#F4F0E6" stroke-width="7.02" stroke-linecap="round" fill="none"/></g></svg>