<svg xmlns="http://www.w3.org/2000/svg" viewBox="0 0 158.77 240" width="158.77" height="240" role="img" aria-label="Generation Maine"><path d="M67.17 8.4 L76.35 8.4" stroke="#F4F0E6" stroke-width="3.6" stroke-linecap="round" fill="none"/><path d="M105.5 8.4 L110.99 8.4" stroke="#F4F0E6" stroke-width="3.6" stroke-linecap="round" fill="none"/><path d="M59.28 19.56 L121.47 19.56" stroke="#F4F0E6" stroke-width="3.83" stroke-linecap="round" fill="none"/><path d="M51.47 30.72 L124.51 30.72" stroke="#F4F0E6" stroke-width="4.06" stroke-linecap="round" fill="none"/><path d="M43.87 41.88 L124.41 41.88" stroke="#F4F0E6" stroke-width="4.28" stroke-linecap="round" fill="none"/><path d="M42.31 53.04 L124.42 53.04" stroke="#F4F0E6" stroke-width="4.51" stroke-linecap="round" fill="none"/><path d="M35.02 64.2 L124.44 64.2" stroke="#F4F0E6" stroke-width="4.74" stroke-linecap="round" fill="none"/><path d="M32.56 75.36 L124.38 75.36" stroke="#F4F0E6" stroke-width="4.97" stroke-linecap="round" fill="none"/><path d="M33.4 86.52 L123.35 86.52" stroke="#F4F0E6" stroke-width="5.2" stroke-linecap="round" fill="none"/><path d="M24.33 97.68 L125.11 97.68" stroke="#F4F0E6" stroke-width="5.42" stroke-linecap="round" fill="none"/><path d="M18.12 108.84 L135.41 108.84" stroke="#F4F0E6" stroke-width="5.65" stroke-linecap="round" fill="none"/><path d="M11.98 120 L135.69 120" stroke="#F4F0E6" stroke-width="5.88" stroke-linecap="round" fill="none"/><path d="M3.88 131.16 L149.37 131.16" stroke="#F4F0E6" stroke-width="6.11" stroke-linecap="round" fill="none"/><path d="M4.67 142.32 L154.05 142.32" stroke="#EFB443" stroke-width="6.34" stroke-linecap="round" fill="none"/><path d="M5.35 153.48 L139.51 153.48" stroke="#F4F0E6" stroke-width="6.56" stroke-linecap="round" fill="none"/><path d="M5.91 164.64 L79.31 164.64" stroke="#F4F0E6" stroke-width="6.79" stroke-linecap="round" fill="none"/><path d="M91.2 164.64 L97.34 164.64" stroke="#F4F0E6" stroke-width="6.79" stroke-linecap="round" fill="none"/><path d="M6.44 175.8 L75.08 175.8" stroke="#F4F0E6" stroke-width="7.02" stroke-linecap="round" fill="none"/><path d="M6.94 186.96 L72.31 186.96" stroke="#F4F0E6" stroke-width="7.25" stroke-linecap="round" fill="none"/><path d="M7.37 198.12 L35.85 198.12" stroke="#F4F0E6" stroke-width="7.48" stroke-linecap="round" fill="none"/><path d="M44.37 198.12 L51.29 198.12" stroke="#F4F0E6" stroke-width="7.48" stroke-linecap="round" fill="none"/><path d="M8.03 209.28 L29.66 209.28" stroke="#F4F0E6" stroke-width="7.7" stroke-linecap="round" fill="none"/><path d="M7.83 220.44 L22.89 220.44" stroke="#F4F0E6" stroke-width="7.93" stroke-linecap="round" fill="none"/></svg>